# xmcd
#
# Track frame offsets:
# 150
# 18095
# 32152
# 48640
# 61865
# 74692
# 89237
# 109515
# 125552
# 143145
# 155352
# 168475
# 182542
# 197142
# 210865
# 227147
# 240695
# 253752
# 265637
# 283817
# 295452
# 306005
#
# Disc length: 4318 seconds
#
#
# Revision: 0
# Processed by: cddbd v1.5.2PL0 Copyright (c) Steve Scherf et al.
# Submitted via: FreeRIP 2.931 
#
DISCID=4610dc16
DTITLE=цИЧЯЦОР мТАКэЯАР - циыяцос мтакаяас - та вяылата тоу вяомоу (2)
DYEAR=1900
DGENRE=казйа
TTITLE0=мувтысе выяис жеццаяи
TTITLE1=г жамтасиа
TTITLE2=ав о лпацйкалас
TTITLE3=то поуйалисо то хакасси
TTITLE4=о оуяамос жеуцеи баяус
TTITLE5=то пяыто пеяистеяи
TTITLE6=йоййимо тяиамтажукко
TTITLE7=пяытг тоу дейелбяг
TTITLE8=йаты ап' тгм йкглатаяиа
TTITLE9=о летоийос
TTITLE10=тыяа поу ха жуцеис
TTITLE11=вамтяа сто йолпокои соу
TTITLE12=циа паяе цужто сжуяи йи аломи
TTITLE13=ти соу кееи г лама соу
TTITLE14=паяапомиаяийо лоу
TTITLE15=акка лоу кем та латиа соу
TTITLE16=ецы поте дем ацапы
TTITLE17=ема тяацоуди апо то акцеяи
TTITLE18=то цяалла
TTITLE19=пемте вяомиа дийаслемос (г жымг тоу аяцике)
TTITLE20=тыяа йкаис
TTITLE21=гяха йи апоье ста сйакопатиа соу
EXTD=
EXTT0=
EXTT1=
EXTT2=
EXTT3=
EXTT4=
EXTT5=
EXTT6=
EXTT7=
EXTT8=
EXTT9=
EXTT10=
EXTT11=
EXTT12=
EXTT13=
EXTT14=
EXTT15=
EXTT16=
EXTT17=
EXTT18=
EXTT19=
EXTT20=
EXTT21=
PLAYORDER=
